<?xml version="1.0" encoding="utf-8"?>
<!-- Generator: Adobe Illustrator 21.0.0, SVG Export Plug-In . SVG Version: 6.00 Build 0)  -->
<svg version="1.1" xmlns="http://www.w3.org/2000/svg" xmlns:xlink="http://www.w3.org/1999/xlink" x="0px" y="0px"
	 viewBox="0 0 64 64" style="enable-background:new 0 0 64 64;" xml:space="preserve">
<style type="text/css">
	.st0{fill:#FBB684;}
	.st1{fill:#538AC8;}
	.st2{fill:#FDCC99;}
	.st3{fill:#4279BD;}
	.st4{fill:#354E5A;}
	.st5{fill:#ACE0F3;}
	.st6{fill:#DFA57A;}
	.st7{fill:#FED767;}
	.st8{fill:#CCCCCC;}
	.st9{fill:#E6E6E6;}
	.st10{fill:#0B3442;}
	.st11{fill:#F2F2F2;}
	.st12{fill:#B3B3B3;}
	.st13{fill:#65A8DC;}
	.st14{fill:#2E599C;}
	.st15{fill:#FED9B4;}
	.st16{fill:#00A8C7;}
	.st17{fill:#02BFE2;}
	.st18{fill:#FFFFFF;}
	.st19{fill:#68C7C2;}
	.st20{fill:#00969D;}
	.st21{fill:#1CACAB;}
	.st22{fill:#FFE36E;}
	.st23{fill:#FEE9AB;}
	.st24{fill:#CC2B57;}
	.st25{fill:#DB1B51;}
	.st26{fill:#EE3A74;}
	.st27{fill:#FCB216;}
	.st28{fill:#FFCA3E;}
	.st29{fill:#DD2B26;}
	.st30{fill:#009E9E;}
	.st31{fill:#D22227;}
	.st32{fill:#CCDDE7;}
	.st33{fill:#57646E;}
	.st34{fill:#00A161;}
	.st35{fill:#19AD6D;}
	.st36{fill:#ABBAC3;}
	.st37{fill:#7A8D9D;}
	.st38{fill:#55C9E9;}
	.st39{fill:#EE2761;}
	.st40{fill:#A6228E;}
	.st41{fill:#F27DA5;}
	.st42{fill:#F064A5;}
	.st43{fill:#F8B6C6;}
	.st44{fill:#F494B7;}
	.st45{fill:#732672;}
	.st46{fill:#7EC3EC;}
	.st47{fill:#3B6BB4;}
	.st48{fill:#8AD5EC;}
	.st49{fill:#A36841;}
	.st50{fill:#BD8150;}
	.st51{fill:#FFE8C9;}
	.st52{fill:#48B758;}
	.st53{fill:#CC3995;}
	.st54{fill:#37BA95;}
	.st55{fill:none;stroke:#000000;stroke-linecap:round;stroke-linejoin:round;stroke-miterlimit:10;}
	.st56{fill:#D7559F;}
	.st57{fill:#00B08E;}
	.st58{fill:#84CBA0;}
	.st59{fill:#56BF98;}
	.st60{fill:#FEE7A3;}
	.st61{fill:#D3EEF4;}
</style>
<g id="guides">
</g>
<g id="_x32_5._stay_home">
</g>
<g id="_x32_4._covid_news">
</g>
<g id="_x32_3._tissue">
</g>
<g id="_x32_2._clothing">
</g>
<g id="_x32_1._hand_washing">
</g>
<g id="_x32_0._dna">
</g>
<g id="_x31_9._social_distancing">
</g>
<g id="_x31_8._hospital">
</g>
<g id="_x31_7._statistic">
</g>
<g id="_x31_6._no_flight">
</g>
<g id="_x31_5._china">
</g>
<g id="_x31_4._water_drop">
</g>
<g id="_x31_3._virus_scan">
</g>
<g id="_x31_2._water_tap">
</g>
<g id="_x31_1._soap">
</g>
<g id="_x31_0._bat">
</g>
<g id="_x39_._microscope">
</g>
<g id="_x38_._cough">
</g>
<g id="_x37_._medical_mask">
</g>
<g id="_x36_._coronavirus">
</g>
<g id="_x35_._world">
	<path class="st48" d="M49,44c0,0.6099854-0.0300293,1.2099609-0.0999756,1.7999878
		c-0.8900146,8.4000244-7.9300537,15-16.5100098,15.1900024C32.2600098,61,32.1300049,61,32,61
		c-3.4400024,0-6.6500244-1.0300293-9.3300171-2.7999878C18.0499878,55.1599731,15,49.9299927,15,44
		c0-0.6600342,0.039978-1.3099976,0.1199951-1.9500122c0.3900146-3.4400024,1.8200073-6.5800171,3.9700317-9.0800171
		C22.2000122,29.3200073,26.8400269,27,32,27c5.8300171,0,10.9799805,2.9500122,14.039978,7.4299927
		C47.9099731,37.1599731,49,40.4599609,49,44z"/>
	<g>
		<path class="st53" d="M30.5,4h1v2.5C31.5,6.7763672,31.7236328,7,32,7s0.5-0.2236328,0.5-0.5V4h1
			C33.7763672,4,34,3.7763672,34,3.5S33.7763672,3,33.5,3h-3C30.2236328,3,30,3.2236328,30,3.5S30.2236328,4,30.5,4z"/>
		<path class="st53" d="M33.5,16h-1v-2.5c0-0.2763672-0.2236328-0.5-0.5-0.5s-0.5,0.2236328-0.5,0.5V16h-1
			c-0.2763672,0-0.5,0.2236328-0.5,0.5s0.2236328,0.5,0.5,0.5h3c0.2763672,0,0.5-0.2236328,0.5-0.5S33.7763672,16,33.5,16z"/>
		<path class="st53" d="M38.5,8C38.2236328,8,38,8.2236328,38,8.5v1h-2.5C35.2236328,9.5,35,9.7236328,35,10s0.2236328,0.5,0.5,0.5
			H38v1c0,0.2763672,0.2236328,0.5,0.5,0.5s0.5-0.2236328,0.5-0.5v-3C39,8.2236328,38.7763672,8,38.5,8z"/>
		<path class="st53" d="M34.1210938,7.8789063c0.0976563,0.0976563,0.2255859,0.1464844,0.3535156,0.1464844
			s0.2558594-0.0488281,0.3535156-0.1464844l2.2324219-2.2324219l0.7070313,0.7070313
			C37.8652344,6.4511719,37.9931641,6.5,38.1210938,6.5s0.2558594-0.0488281,0.3535156-0.1464844
			c0.1953125-0.1953125,0.1953125-0.5117188,0-0.7070313l-2.1210938-2.1210938
			c-0.1953125-0.1953125-0.5117188-0.1953125-0.7070313,0s-0.1953125,0.5117188,0,0.7070313l0.7070313,0.7070313
			L34.1210938,7.171875C33.9257813,7.3671875,33.9257813,7.6835938,34.1210938,7.8789063z"/>
		<path class="st53" d="M27.2421875,4.9394531l0.7070313-0.7070313c0.1953125-0.1953125,0.1953125-0.5117188,0-0.7070313
			s-0.5117188-0.1953125-0.7070313,0l-2.1210938,2.1210938c-0.1953125,0.1953125-0.1953125,0.5117188,0,0.7070313
			C25.21875,6.4511719,25.3466797,6.5,25.4746094,6.5s0.2558594-0.0488281,0.3535156-0.1464844l0.7070313-0.7070313
			l2.2324219,2.2324219c0.0976563,0.0976563,0.2255859,0.1464844,0.3535156,0.1464844s0.2558594-0.0488281,0.3535156-0.1464844
			c0.1953125-0.1953125,0.1953125-0.5117188,0-0.7070313L27.2421875,4.9394531z"/>
		<path class="st53" d="M37.7675781,14.0507813l-0.7070313,0.7070313l-2.2324219-2.2324219
			c-0.1953125-0.1953125-0.5117188-0.1953125-0.7070313,0s-0.1953125,0.5117188,0,0.7070313l2.2324219,2.2324219
			l-0.7070313,0.7070313c-0.1953125,0.1953125-0.1953125,0.5117188,0,0.7070313
			C35.7441406,16.9765625,35.8720703,17.0253906,36,17.0253906s0.2558594-0.0488281,0.3535156-0.1464844l2.1210938-2.1210938
			c0.1953125-0.1953125,0.1953125-0.5117188,0-0.7070313S37.9628906,13.8554688,37.7675781,14.0507813z"/>
		<path class="st53" d="M28.7675781,12.5253906l-2.2324219,2.2324219l-0.7070313-0.7070313
			c-0.1953125-0.1953125-0.5117188-0.1953125-0.7070313,0s-0.1953125,0.5117188,0,0.7070313l2.1210938,2.1210938
			c0.0976563,0.0976563,0.2255859,0.1464844,0.3535156,0.1464844s0.2558594-0.0488281,0.3535156-0.1464844
			c0.1953125-0.1953125,0.1953125-0.5117188,0-0.7070313l-0.7070313-0.7070313l2.2324219-2.2324219
			c0.1953125-0.1953125,0.1953125-0.5117188,0-0.7070313S28.9628906,12.3300781,28.7675781,12.5253906z"/>
		<path class="st53" d="M25.5,8C25.2236328,8,25,8.2236328,25,8.5v3c0,0.2763672,0.2236328,0.5,0.5,0.5s0.5-0.2236328,0.5-0.5v-1
			h2.5c0.2763672,0,0.5-0.2236328,0.5-0.5s-0.2236328-0.5-0.5-0.5H26v-1C26,8.2236328,25.7763672,8,25.5,8z"/>
	</g>
	<path class="st44" d="M36,10c0,1.289978-0.6099854,2.4299927-1.5499878,3.1599731C33.7700195,13.6900024,32.9199829,14,32,14
		c-2.210022,0-4-1.7900391-4-4c0-1.5300293,0.8599854-2.8599854,2.1300049-3.5300293C30.6900024,6.1699829,31.3200073,6,32,6
		C34.210022,6,36,7.789978,36,10z"/>
	<path class="st54" d="M31.8535156,32.1464844l-2-2c-0.1337891-0.1333008-0.3310547-0.1816406-0.5117188-0.1206055l-3,1
		c-0.1494141,0.0493164-0.2666016,0.1665039-0.3164063,0.315918l-1,3c-0.0488281,0.1464844-0.0273438,0.3071289,0.0585938,0.4355469
		c0.0771484,0.1162109,1.6464844,2.4311523,3.5595703,2.4311523c0.3505859,0,0.7128906-0.078125,1.0800781-0.2612305
		C31.9736328,35.8217773,32,32.6352539,32,32.5C32,32.3671875,31.9472656,32.2402344,31.8535156,32.1464844z"/>
	<path class="st54" d="M49,44c0,0.6099854-0.0300293,1.2099609-0.0999756,1.7999878l-5.3300171-1.7800293l-3.75,1.8800049
		l-3.9299927,4.9100342C35.789978,50.9299927,35.6500244,51,35.5,51c-0.0599976,0-0.1099854-0.0100098-0.1699829-0.0300293
		C35.1300049,50.8999634,35,50.7099609,35,50.5v-2.1900024l-1.2800293,0.6400146
		c-0.1899414,0.0899658-0.4199829,0.0599976-0.5699463-0.1000366l-3-3
		c-0.1199951-0.1099854-0.1700439-0.2700195-0.1400146-0.4299927c0.0200195-0.1599731,0.1199951-0.2999878,0.2700195-0.3699951
		L33.8900146,43.25l-0.8599854-2.5900269C32.9699707,40.5,33,40.3200073,33.1099854,40.1900024l4-5
		c0.1199951-0.1500244,0.3200073-0.2200317,0.5100098-0.1700439l3.8900146,0.9700317l4.5299683-1.5599976
		C47.9099731,37.1599731,49,40.4599609,49,44z"/>
	<path class="st54" d="M42.6582031,51.0258789l-3-1c-0.1787109-0.0595703-0.3769531-0.0126953-0.5117188,0.1206055l-2,2
		c-0.1523438,0.1523438-0.1904297,0.3847656-0.09375,0.5771484l1,2C38.1386719,54.8959961,38.3144531,55,38.5,55
		c0.0400391,0,0.0810547-0.0048828,0.1210938-0.0151367l4-1C42.84375,53.9291992,43,53.7294922,43,53.5v-2
		C43,51.284668,42.8623047,51.09375,42.6582031,51.0258789z"/>
	<path class="st54" d="M32.3900146,60.9899902C32.2600098,61,32.1300049,61,32,61
		c-3.4400024,0-6.6500244-1.0300293-9.3300171-2.7999878l-2.6399536-6.5200195l-1.9800415-3.960022
		c-0.0199585-0.039978-0.0299683-0.0799561-0.039978-0.1199951l-0.9400024-4.7199707l-1.9500122-0.8300171
		c0.3900146-3.4400024,1.8200073-6.5800171,3.9700317-9.0800171l2.8499756,5.2900391C21.9799805,38.3299561,22,38.4199829,22,38.5
		v6.8800049l1.8699951,3.75l3.8499756,1.9199829c0.1000366,0.0499878,0.1800537,0.1300049,0.2300415,0.2299805l2,4
		L32.3900146,60.9899902z"/>
	<path class="st28" d="M32.2441406,19.0639648c-0.1089973-0.0606918-0.2880077-0.0795498-0.4130859-0.034668
		c-0.4150391,0.1489258-10.2011719,3.7363281-13.3789063,11.3657227c-1.4667969,3.5200195-1.2666016,7.3276367,0.5947266,11.3164063
		C19.1318359,41.8930664,19.3125,42,19.5,42c0.0712891,0,0.1425781-0.0151367,0.2119141-0.046875
		c0.25-0.1166992,0.3583984-0.4145508,0.2412109-0.6645508c-1.7373047-3.722168-1.9316406-7.2568359-0.5800781-10.5053711
		c2.4669189-5.9256592,9.4283447-9.3792114,11.9026489-10.4483643l-3.2610474,13.0440674
		c-0.0664063,0.2675781,0.0957031,0.5390625,0.3642578,0.605957C28.4199219,33.9951172,28.4599609,34,28.5,34
		c0.2246094,0,0.4287109-0.1513672,0.4853516-0.3789063l3.1231689-12.4926758
		c2.0073242,5.1589966,8.5645752,22.9552002,6.9012451,31.2734375c-0.0546875,0.2709961,0.1210938,0.5341797,0.3925781,0.5883789
		C39.4345703,52.9970703,39.4677734,53,39.5009766,53c0.2333984,0,0.4414063-0.1640625,0.4892578-0.4018555
		c1.7346802-8.6729736-4.8586426-26.5078125-6.9321289-31.7988281c3.0532227,2.2072144,10.2579346,8.6088867,7.9545898,18.5883789
		c-0.0615234,0.269043,0.1054688,0.5375977,0.375,0.5996094C41.4257813,39.9960938,41.4628906,40,41.5,40
		c0.2275391,0,0.4335938-0.15625,0.4873047-0.3876953C45.0361328,26.3999023,32.3730469,19.1357422,32.2441406,19.0639648z"/>
	<path class="st41" d="M34.4500122,13.1599731C33.7700195,13.6900024,32.9199829,14,32,14c-2.210022,0-4-1.7900391-4-4
		c0-1.5300293,0.8599854-2.8599854,2.1300049-3.5300293C30.0100098,7.9099731,30.2999878,11.0700073,34.4500122,13.1599731z"/>
</g>
<g id="_x34_._shield">
</g>
<g id="_x33_._disinfectant">
</g>
<g id="_x32_._thermometer">
</g>
<g id="_x31_._protected">
</g>
</svg>
